<?xml version="1.0" standalone="no"?><!-- Generator: Gravit.io --><svg xmlns="http://www.w3.org/2000/svg" xmlns:xlink="http://www.w3.org/1999/xlink" style="isolation:isolate" viewBox="0 0 52 5" width="52" height="5"><defs><clipPath id="_clipPath_d5a2WvT2ogrTd4ffFUbmXZsOQO1nS5rB"><rect width="52" height="5"/></clipPath></defs><g clip-path="url(#_clipPath_d5a2WvT2ogrTd4ffFUbmXZsOQO1nS5rB)"><path d=" M 33.217 0.868 L 31.292 0.868 L 31.292 4.925 L 30.443 4.925 L 30.443 0.868 L 28.519 0.868 L 28.519 0.019 L 33.217 0.019 L 33.217 0.868 Z " fill="rgb(255,255,255)"/><path d=" M 6.575 4.925 L 5.481 4.925 L 4.651 3.538 L 2.34 3.538 L 2.849 2.698 L 4.142 2.698 L 3.292 1.283 L 1.085 4.925 L 0 4.915 L 2.651 0.481 C 2.717 0.368 2.811 0.264 2.934 0.17 C 3.075 0.057 3.198 0 3.321 0 C 3.443 0 3.566 0.057 3.698 0.16 C 3.821 0.245 3.906 0.358 3.981 0.481 L 6.575 4.925 Z " fill="rgb(255,255,255)"/><path d=" M 11.217 2.481 C 11.217 2.009 11.066 1.623 10.764 1.321 C 10.462 1.019 10.075 0.868 9.613 0.868 L 7.698 0.868 L 7.698 4.066 L 9.613 4.066 C 10.075 4.066 10.462 3.925 10.764 3.632 C 11.066 3.34 11.217 2.953 11.217 2.481 Z  M 12.066 2.415 C 12.066 3.142 11.84 3.736 11.368 4.208 C 10.906 4.689 10.321 4.925 9.613 4.925 L 6.858 4.925 L 6.858 0.019 L 9.613 0.019 C 10.33 0.019 10.915 0.236 11.377 0.679 C 11.84 1.113 12.066 1.698 12.066 2.415 Z " fill-rule="evenodd" fill="rgb(255,255,255)"/><path d=" M 18.038 0.019 L 15.255 4.519 C 15.057 4.84 14.877 5 14.717 5 C 14.566 5 14.396 4.84 14.198 4.519 L 11.462 0.019 L 12.557 0.019 L 14.745 3.66 L 16.943 0.019 L 18.038 0.019 Z " fill="rgb(255,255,255)"/><path d=" M 22.226 2.858 L 19.434 2.858 L 19.434 2 L 22.226 2 L 22.226 2.858 Z  M 22.443 4.925 L 18.226 4.925 L 18.226 0.019 L 22.443 0.019 L 22.443 0.868 L 19.075 0.868 L 19.075 4.066 L 22.443 4.066 L 22.443 4.925 Z " fill-rule="evenodd" fill="rgb(255,255,255)"/><path d=" M 28.623 4.925 L 27.368 4.925 L 26 3.538 L 24.16 3.538 L 24.16 2.698 L 26.453 2.698 C 26.764 2.698 27.028 2.623 27.245 2.481 C 27.491 2.321 27.613 2.094 27.613 1.792 C 27.613 1.179 27.226 0.868 26.453 0.868 L 23.66 0.868 L 23.66 4.925 L 22.811 4.925 L 22.811 0.019 L 26.311 0.019 C 26.943 0.019 27.453 0.151 27.84 0.425 C 28.283 0.736 28.5 1.189 28.5 1.792 C 28.5 2.208 28.377 2.566 28.113 2.858 C 27.877 3.142 27.557 3.33 27.142 3.443 L 28.623 4.925 Z " fill="rgb(255,255,255)"/><path d=" M 45.226 4.925 L 43.972 4.925 L 42.604 3.538 L 40.764 3.538 L 40.764 2.698 L 43.057 2.698 C 43.368 2.698 43.632 2.623 43.849 2.481 C 44.094 2.321 44.208 2.094 44.208 1.792 C 44.208 1.179 43.821 0.868 43.057 0.868 L 40.264 0.868 L 40.264 4.925 L 39.415 4.925 L 39.415 0.019 L 42.915 0.019 C 43.547 0.019 44.057 0.151 44.443 0.425 C 44.887 0.736 45.104 1.189 45.104 1.792 C 45.104 2.208 44.981 2.566 44.717 2.858 C 44.481 3.142 44.16 3.33 43.745 3.443 L 45.226 4.925 Z " fill="rgb(43,167,225)"/><path d=" M 50.877 2.481 C 50.877 2.009 50.726 1.623 50.425 1.321 C 50.123 1.019 49.736 0.868 49.264 0.868 L 47.896 0.868 C 47.425 0.868 47.047 1.019 46.736 1.321 C 46.434 1.623 46.283 2.009 46.283 2.481 C 46.283 2.953 46.434 3.34 46.736 3.632 C 47.047 3.925 47.425 4.066 47.896 4.066 L 49.264 4.066 C 49.736 4.066 50.123 3.925 50.425 3.632 C 50.726 3.34 50.877 2.953 50.877 2.481 Z  M 51.726 2.415 C 51.726 3.142 51.491 3.736 51.028 4.208 C 50.566 4.689 49.981 4.925 49.264 4.925 L 47.896 4.925 C 47.189 4.925 46.594 4.689 46.132 4.208 C 45.67 3.736 45.434 3.142 45.434 2.415 C 45.434 1.698 45.66 1.113 46.123 0.679 C 46.585 0.236 47.179 0.019 47.896 0.019 L 49.264 0.019 C 49.991 0.019 50.575 0.236 51.038 0.679 C 51.491 1.113 51.726 1.698 51.726 2.415 Z " fill-rule="evenodd" fill="rgb(43,167,225)"/><path d=" M 39.038 1.783 C 39.038 2.321 38.84 2.755 38.453 3.085 C 38.094 3.387 37.632 3.538 37.085 3.538 L 34.934 3.538 L 34.934 2.698 L 37.226 2.698 C 37.5 2.698 37.736 2.613 37.934 2.443 C 38.123 2.274 38.217 2.057 38.217 1.774 C 38.217 1.5 38.123 1.274 37.934 1.113 C 37.736 0.953 37.5 0.868 37.226 0.868 L 34.434 0.868 L 34.434 4.925 L 33.575 4.925 L 33.575 0.019 L 37.085 0.019 C 37.632 0.019 38.094 0.17 38.453 0.481 C 38.84 0.811 39.038 1.245 39.038 1.783 Z " fill="rgb(43,167,225)"/></g></svg>