<?xml version="1.0" encoding="utf-8"?>
<svg version="1.1" id="Layer_1" xmlns="http://www.w3.org/2000/svg" xmlns:xlink="http://www.w3.org/1999/xlink" x="0px" y="0px"
	 viewBox="0 0 701 117.6" style="enable-background:new 0 0 701 117.6;" xml:space="preserve">
<style type="text/css">
	.st0{fill-rule:evenodd;clip-rule:evenodd;fill:#ab0256;}
	.st1{fill-rule:evenodd;clip-rule:evenodd;fill:#cb32cb;stroke:#FFFFFF;stroke-linecap:round;stroke-linejoin:round;stroke-miterlimit:10;}
	.st2{fill-rule:evenodd;clip-rule:evenodd;fill:#fdf087;}
	.st3{fill-rule:evenodd;clip-rule:evenodd;fill:#fc0fc0;}
	.st4{fill-rule:evenodd;clip-rule:evenodd;fill:#e7cbd6;}
	.st5{fill-rule:evenodd;clip-rule:evenodd;fill:#30bff9;}
	.st6{fill-rule:evenodd;clip-rule:evenodd;fill:#FEFEFE;}
</style>
<rect y="0.5" class="st0" width="116.8" height="116.6"/>
<rect x="116.8" y="0.5" class="st1" width="116.8" height="116.6"/>
<rect x="233.7" y="0.5" class="st2" width="116.8" height="116.6"/>
<rect x="350.5" y="0.5" class="st3" width="116.8" height="116.6"/>
<rect x="467.3" y="0.5" class="st4" width="116.8" height="116.6"/>
<rect x="584.2" y="0.5" class="st5" width="116.8" height="116.6"/>
<path class="st6" d="M673.2,97.6H692l-4.7-85h-25.1l-9.1,28.2c-3,9.4-5.7,20.7-8.1,30.5h-0.4c-1.9-10-4.3-20.6-7.2-30.4l-8.3-28.4
	h-25.6l-5.4,85h17.8l1.5-32.3c0.5-10.6,1-23.7,1.5-35.2h0.2c2,11.1,5,23.2,7.7,33.1l9.1,32.9h15L661.3,63c3.1-10,6.8-22.1,9.5-32.9
	h0.4c0,12.3,0.4,24.7,0.8,34.9L673.2,97.6z M526.5,26.5c13.3,0,20.6,13.1,20.6,28.4c0,16.5-7.5,28.9-20.5,28.9
	c-12.9,0-20.7-11.7-20.7-28.4C505.9,38.8,513.5,26.5,526.5,26.5z M527,11.2c-25.1,0-41.4,19-41.4,44.5c0,24.2,14.8,43.2,40,43.2
	c24.9,0,41.8-16.9,41.8-44.8C567.4,30.7,553.1,11.2,527,11.2z M394.1,27.5c1.6-0.4,4.4-0.8,8.7-0.8c16.5,0,26.9,9.3,26.8,27
	c0,20.3-11.4,29.9-28.8,29.8c-2.4,0-5,0-6.7-0.4V27.5z M374.8,97.2c4.8,0.6,11.9,1.3,21.9,1.3c16.7,0,30.3-3.5,39.3-11
	c8.2-6.9,14.1-18.2,14.1-34.4c0-15-5.6-25.5-14.4-32c-8.2-6.2-18.7-9.1-34.9-9.1c-9.7,0-18.9,0.6-26,1.8V97.2z M322.4,98.3h18.8
	l-4.7-85h-25.1l-9.1,28.2c-3,9.4-5.7,20.7-8.1,30.5h-0.4c-1.9-10-4.3-20.6-7.2-30.4l-8.3-28.4h-25.6l-5.4,85h17.8l1.5-32.3
	c0.5-10.6,1-23.7,1.5-35.2h0.2c2,11.1,4.9,23.2,7.7,33.2l9.1,32.9h15l10.4-33.1c3.1-10,6.8-22.1,9.5-32.9h0.4
	c0,12.4,0.4,24.7,0.8,34.9L322.4,98.3z M175.3,26.5c13.3,0,20.6,13.1,20.6,28.4c0,16.5-7.5,28.9-20.5,28.9
	c-12.9,0-20.7-11.7-20.7-28.4C154.7,38.8,162.3,26.5,175.3,26.5z M175.8,11.2c-25.1,0-41.4,19-41.4,44.5c0,24.2,14.8,43.2,40,43.2
	c24.9,0,41.8-16.9,41.8-44.8C216.2,30.7,201.9,11.2,175.8,11.2z M50.7,28.2h18.6v53.7H41c2.3-4,4.4-9.2,5.9-14.4
	c2.5-8.6,3.8-18.2,3.8-28V28.2z M32.9,12.6v22.7c0,10.5-1,19.7-3.4,28.2c-1.9,6.7-4.7,12.9-8.1,18.9l-7.1,0.5l0.5,25.9h15.3
	l0.5-11.3h49.8l0.5,11.3h15.4l0.6-25.9l-8.5-0.5V12.6H32.9z"/>
</svg>
